# xmcd
#
# Track frame offsets:
#	150
#	12151
#	23188
#	36713
#	49989
#	74135
#	88884
#	102707
#	112263
#	121585
#	134591
#	145712
#	156527
#	171267
#	183763
#	194631
#	211957
#	226916
#	247743
#	258615
#
# Disc length: 3629 seconds
#
# Revision: 1
# Processed by: cddbd v1.5.2PL0 Copyright (c) Steve Scherf et al.
# Submitted via: audiograbber 1.83.01
#
DISCID=350e2b14
DTITLE=Various Artist - 100 Hits The Best Country Album CD2
DYEAR=2018
DGENRE=Country
TTITLE0=Johnny Cash - Ring Of Fire
TTITLE1=Willie Nelson - On The Road Again
TTITLE2=Billy Swan - I Can Help
TTITLE3=Lynn Anderson - Rose Garden
TTITLE4=The Charlie Daniels Band - Uneasy Rider
TTITLE5=Roseanne Cash - My Baby Thinks He's A Train
TTITLE6=Waylon Jennings - Good Hearted Woman
TTITLE7=Barbara Mandrell - Tonight My Baby's Coming Home
TTITLE8=Charley Pride - Kiss An Angel Good Mornin'
TTITLE9=Merle Haggard - Let's Chase Each Other Around The Room
TTITLE10=Jimmy Dean - Little Black Book
TTITLE11=Perry Como - Delaware
TTITLE12=Lorne Greene - Ringo
TTITLE13=Bobby Bare - 500 Miles Away From Home
TTITLE14=Hank Locklin - Please Help Me, I'm Falling
TTITLE15=Ray Price - For The Good Times
TTITLE16=George Jones - He Stopped Loving Her Today
TTITLE17=Marianne Faithfull - Visions Of Johanna
TTITLE18=Tanya Tucker - Would You Lay With Me [In A Field Of Stone]
TTITLE19=John Denver - Annie's Song
EXTD=
EXTT0=
EXTT1=
EXTT2=
EXTT3=
EXTT4=
EXTT5=
EXTT6=
EXTT7=
EXTT8=
EXTT9=
EXTT10=
EXTT11=
EXTT12=
EXTT13=
EXTT14=
EXTT15=
EXTT16=
EXTT17=
EXTT18=
EXTT19=
PLAYORDER=
